<svg viewBox="0 0 121.78 118.79" xmlns="http://www.w3.org/2000/svg"><path d="m60.89.5a60.39 60.39 0 0 0 -19.09 117.69c3 .56 4.12-1.31 4.12-2.91 0-1.44-.05-6.19-.08-11.24-16.84 3.65-20.34-7.12-20.34-7.12-2.75-7-6.71-8.84-6.71-8.84-5.48-3.75.41-3.67.41-3.67 6.07.43 9.26 6.22 9.26 6.22 5.39 9.23 14.13 6.57 17.57 5 .55-3.9 2.11-6.56 3.84-8.07-13.41-1.53-27.52-6.71-27.52-29.85a23.35 23.35 0 0 1 6.23-16.21c-.63-1.52-2.7-7.66.58-16 0 0 5.07-1.62 16.61 6.19a57.36 57.36 0 0 1 30.25 0c11.52-7.81 16.59-6.19 16.59-6.19 3.28 8.32 1.22 14.46.59 16a23.34 23.34 0 0 1 6.21 16.21c0 23.2-14.12 28.3-27.57 29.8 2.16 1.87 4.09 5.55 4.09 11.18 0 8.08-.06 14.59-.06 16.57 0 1.61 1.08 3.49 4.14 2.9a60.39 60.39 0 0 0 -19.12-117.66z" fill="none" stroke="#000" stroke-miterlimit="10"/></svg>