<?xml version="1.0" encoding="UTF-8"?>
<svg width="14px" height="16px" viewBox="0 0 14 16" version="1.1" xmlns="http://www.w3.org/2000/svg" xmlns:xlink="http://www.w3.org/1999/xlink">
    <!-- Generator: Sketch 53.2 (72643) - https://sketchapp.com -->
    <title>Combined Shape 3</title>
    <desc>Created with Sketch.</desc>
    <g id="Page-1" stroke="none" stroke-width="1" fill="none" fill-rule="evenodd">
        <g id="homeNespresso-Copy" transform="translate(-17.000000, -45.000000)" stroke="#979797" stroke-width="0.5">
            <g id="Combined-Shape-3" transform="translate(17.434218, 45.328167)">
                <path d="M13.0176996,2.98026833 C13.2094607,4.53764808 12.9568563,7.81700861 10.6467756,10.5700556 C8.05189536,13.6625135 4.41342818,15.3842817 2.50879406,14.9606569 C1.92188535,14.8301178 1.43339871,14.5740528 1.04333413,14.1924619 C0.408955527,13.7054842 7.90478794e-14,12.9394574 7.90478794e-14,12.0779139 C7.90478794e-14,10.60656 1.19276803,9.41379198 2.66412196,9.41379198 C4.01189486,9.41379198 5.12591418,10.41461 5.30354226,11.7136084 C6.5274527,11.098901 8.1143203,9.65488934 8.90265577,8.71538771 C9.62345623,7.85637118 10.170241,6.93596656 10.5430101,5.95417385 C10.372465,5.98429057 10.1969486,6 10.0177631,6 C8.36090886,6 7.01776311,4.65685425 7.01776311,3 C7.01776311,1.34314575 8.36090886,-4.4408921e-15 10.0177631,-4.4408921e-15 C11.6680352,-4.4408921e-15 13.0070863,1.3324951 13.0176996,2.98026833 Z" id="Combined-Shape"></path>
            </g>
        </g>
    </g>
</svg>