<?xml version="1.0" encoding="UTF-8"?>
<svg width="17px" height="17px" viewBox="0 0 17 17" version="1.1" xmlns="http://www.w3.org/2000/svg" xmlns:xlink="http://www.w3.org/1999/xlink">
    <!-- Generator: Sketch 53.2 (72643) - https://sketchapp.com -->
    <title>Combined Shape 4</title>
    <desc>Created with Sketch.</desc>
    <g id="Page-1" stroke="none" stroke-width="1" fill="none" fill-rule="evenodd">
        <g id="homeNespresso-Copy" transform="translate(-16.000000, -104.000000)" stroke="#979797" stroke-width="0.5">
            <g id="Combined-Shape-4" transform="translate(16.092206, 104.500000)">
                <g id="Combined-Shape-2" transform="translate(0.000000, -0.000000)">
                    <path d="M5.73968413,14.4141457 C5.8215142,14.4019368 5.90442638,14.3844539 5.98834931,14.3616939 L6.10250715,14.2943231 L6.1311578,14.2647366 L5.95156347,14.0908232 L5.70285083,14.1161613 C5.71307687,14.2165375 5.72537216,14.3159208 5.73968413,14.4141457 Z M6.08710852,15.75 C6.1363906,15.8749102 6.18966081,15.9953672 6.24673988,16.110807 L6.47084209,15.75 L6.08710852,15.75 Z M10.166199,15.75 L9.78243518,15.75 L10.0065374,16.110807 C10.0636859,15.9952267 10.1169572,15.8747746 10.166199,15.75 Z M9.96248797,10.5529762 C9.9092469,10.4511847 9.85292747,10.353587 9.79365584,10.2605955 L9.63965047,10.6384273 C9.7499163,10.6126963 9.85757144,10.5841874 9.96248797,10.5529762 Z M11.6185182,5.76475822 C11.5733733,5.71368791 11.526437,5.66353521 11.4777461,5.61435601 L11.5045277,5.93414094 C11.5453117,5.87619617 11.5833145,5.81975247 11.6185182,5.76475822 Z M11.5480202,3.85861155 L11.3367519,4.14145614 L11.3368042,4.14181728 L11.5842218,4.10597682 L11.5483814,3.85855923 C11.548261,3.85857667 11.5481406,3.85859411 11.5480202,3.85861155 Z M9.93685858,4.63704937 C9.89675661,4.6913673 9.85743,4.74917966 9.81884321,4.81045125 L10.1282778,4.7136369 C10.0652124,4.68680037 10.0013887,4.66126557 9.93685858,4.63704937 Z M6.23674388,4.66775595 C6.17043066,4.69400132 6.10490676,4.72165617 6.04023047,4.75070111 L6.35600031,4.84845027 C6.31701612,4.78462233 6.2772766,4.7243792 6.23674388,4.66775595 Z M4.60325808,3.85861155 C4.6031377,3.85859411 4.60301732,3.85857667 4.60289693,3.85855923 L4.56705647,4.10597682 L4.81447405,4.14181728 L4.81452636,4.14145614 L4.60325808,3.85861155 Z M4.57674882,5.83208219 C4.61265761,5.88592222 4.65113688,5.94111454 4.69217317,5.9977029 L4.71262316,5.67947605 C4.66555091,5.72942376 4.62024754,5.78031093 4.57674882,5.83208219 Z M6.29080322,10.5529804 C6.39571535,10.5841899 6.50336584,10.6126975 6.6136268,10.6384273 L6.45962143,10.2605955 C6.40037298,10.3535506 6.34405606,10.4511508 6.29080322,10.5529804 Z M5.68059402,12.9031792 C5.67556802,12.9815909 5.67178864,13.0605083 5.66927973,13.1398564 L5.91092157,12.8978928 C5.82959608,12.9005726 5.75278193,12.9023211 5.68059402,12.9031792 Z" id="Combined-Shape"></path>
                </g>
            </g>
        </g>
    </g>
</svg>