<?xml version="1.0" standalone="no"?>
<!DOCTYPE svg PUBLIC "-//W3C//DTD SVG 20010904//EN"
 "http://www.w3.org/TR/2001/REC-SVG-20010904/DTD/svg10.dtd">
<svg version="1.0" xmlns="http://www.w3.org/2000/svg"
 width="656.000000pt" height="656.000000pt" viewBox="0 0 656.000000 656.000000"
 preserveAspectRatio="xMidYMid meet">
<metadata>
Created by potrace 1.11, written by Peter Selinger 2001-2013
</metadata>
<g transform="translate(0.000000,656.000000) scale(0.100000,-0.100000)"
fill="#000000" stroke="none">
<path d="M166 6443 c-3 -4 -6 -1448 -6 -3210 0 -2936 1 -3203 16 -3195 9 5 33
6 54 2 21 -4 44 -4 51 1 7 4 20 4 29 -1 9 -5 22 -5 29 -1 7 5 30 5 51 1 21 -4
44 -4 51 1 7 4 20 4 29 -1 9 -5 22 -5 29 -1 7 5 30 5 51 1 21 -4 44 -4 51 1 7
4 20 4 29 -1 9 -5 22 -5 29 -1 7 5 30 5 51 1 21 -4 44 -4 51 1 7 4 20 4 29 -1
9 -5 22 -5 29 -1 7 5 30 5 51 1 21 -4 44 -4 51 1 7 4 20 4 29 -1 9 -5 22 -5
29 -1 7 5 30 5 51 1 21 -4 44 -4 51 1 7 4 20 4 28 0 9 -4 30 -5 46 -1 17 3 48
3 70 0 22 -3 65 -3 95 0 30 3 70 2 88 -1 17 -4 32 -4 32 0 0 3 23 6 50 6 28 0
50 -4 50 -10 0 -5 4 -5 10 1 7 7 29 8 56 4 24 -4 47 -4 49 0 2 3 21 5 42 2 46
-4 40 -4 130 -2 39 1 76 -1 82 -5 6 -3 11 -3 11 2 0 4 23 8 50 8 28 0 50 -4
50 -10 0 -5 4 -5 10 1 7 7 29 8 56 4 24 -4 47 -4 49 0 2 3 21 5 42 2 46 -4 40
-4 130 -2 39 1 76 -1 82 -5 6 -3 11 -3 11 2 0 4 23 8 50 8 28 0 50 -4 50 -10
0 -5 4 -5 10 1 6 6 33 8 65 4 31 -3 57 -4 60 -2 6 6 224 4 235 -3 6 -3 10 -3
10 2 0 4 23 8 50 8 28 0 50 -4 50 -10 0 -5 4 -5 10 1 7 7 29 8 56 4 24 -4 47
-4 49 0 2 3 21 5 42 2 46 -4 40 -4 130 -2 39 1 76 -1 82 -5 6 -3 11 -3 11 2 0
4 23 8 50 8 28 0 50 -4 50 -9 0 -6 4 -6 10 0 7 7 29 8 56 4 24 -4 47 -4 49 0
2 3 21 5 42 2 21 -2 43 -3 48 -4 18 0 149 1 175 1 14 1 41 0 60 0 19 -1 41 -1
48 0 6 1 19 1 27 1 8 0 23 0 33 0 9 0 33 0 52 -1 19 -1 41 -1 48 0 6 1 19 1
27 1 8 0 23 0 33 0 9 0 33 0 52 -1 19 -1 41 -1 48 0 6 1 19 1 27 1 8 0 23 0
33 0 9 0 33 0 52 -1 19 -1 41 -1 48 0 6 1 19 1 27 1 8 0 23 0 33 0 9 0 33 0
52 -1 19 -1 41 -1 48 0 6 1 19 1 27 1 8 0 23 0 33 0 9 0 33 0 52 -1 19 -1 41
-1 48 0 6 1 19 1 27 1 8 0 23 0 33 0 9 0 33 0 52 -1 19 -1 41 -1 48 0 6 1 19
1 27 1 8 0 23 0 33 0 9 0 33 0 52 -1 19 -1 41 -1 48 0 6 1 19 1 27 1 8 0 23 0
33 0 9 0 33 0 52 -1 19 -1 41 -1 48 0 6 1 19 1 27 1 8 0 23 0 33 0 9 0 33 0
52 -1 19 -1 41 -1 48 0 6 1 19 1 27 1 8 0 23 0 33 0 9 0 33 0 52 -1 19 -1 41
-1 48 0 6 1 19 1 27 1 8 0 23 0 33 0 9 0 33 0 52 -1 19 -1 41 -1 48 0 6 1 19
1 27 1 8 0 23 0 33 0 9 0 33 0 52 -1 19 -1 41 -1 48 0 6 1 19 1 27 1 8 0 23 0
33 0 9 0 33 0 52 -1 19 -1 41 -1 48 0 6 1 19 1 27 1 8 0 23 0 33 0 9 0 33 0
52 -1 19 -1 41 -1 48 0 6 1 19 1 27 1 8 0 23 0 33 0 9 0 33 0 52 -1 19 -1 42
-1 50 0 8 1 23 1 33 2 16 0 17 159 17 3200 0 2556 -3 3200 -12 3196 -7 -2 -23
-1 -34 4 -12 4 -24 5 -27 2 -8 -7 -266 -5 -278 2 -5 4 -9 2 -9 -3 0 -8 -72 -7
-95 2 -5 2 -19 0 -30 -4 -11 -4 -30 -4 -41 1 -12 4 -25 5 -28 2 -7 -8 -264 -5
-276 2 -6 4 -10 2 -10 -3 0 -8 -72 -7 -95 2 -5 2 -19 0 -30 -4 -11 -4 -30 -4
-41 1 -12 4 -24 5 -27 2 -8 -7 -266 -5 -278 2 -5 4 -9 2 -9 -3 0 -8 -72 -7
-95 2 -5 2 -19 0 -30 -4 -11 -4 -30 -4 -41 1 -12 4 -25 5 -28 2 -7 -8 -264 -5
-276 2 -6 4 -10 2 -10 -3 0 -8 -72 -7 -95 2 -5 2 -19 0 -30 -4 -11 -4 -30 -4
-41 1 -12 4 -24 5 -27 2 -8 -7 -266 -5 -278 2 -5 4 -9 2 -9 -3 0 -8 -72 -7
-95 2 -5 2 -19 0 -30 -4 -11 -4 -30 -4 -41 1 -12 4 -25 5 -28 2 -7 -8 -264 -5
-276 2 -6 4 -10 2 -10 -3 0 -8 -72 -7 -95 2 -5 2 -19 0 -30 -4 -11 -4 -30 -4
-41 1 -12 4 -24 5 -27 2 -8 -7 -266 -5 -278 2 -5 4 -9 2 -9 -3 0 -8 -72 -7
-95 2 -5 2 -19 0 -30 -4 -11 -4 -30 -4 -41 1 -12 4 -25 5 -28 2 -7 -8 -264 -5
-276 2 -6 4 -10 2 -10 -3 0 -8 -72 -7 -95 2 -5 2 -19 0 -30 -4 -11 -4 -30 -4
-41 1 -12 4 -24 5 -27 2 -8 -7 -266 -5 -278 2 -5 4 -9 2 -9 -3 0 -8 -72 -7
-95 2 -5 2 -19 0 -30 -4 -11 -4 -30 -4 -41 1 -12 4 -25 5 -28 2 -7 -8 -264 -5
-276 2 -6 4 -10 2 -10 -3 0 -8 -72 -7 -95 2 -5 2 -19 0 -30 -4 -11 -4 -30 -4
-41 1 -12 4 -24 5 -27 2 -8 -7 -266 -5 -278 2 -5 4 -9 2 -9 -3 0 -8 -72 -7
-95 2 -5 2 -19 0 -30 -4 -11 -4 -30 -4 -41 1 -12 4 -25 5 -28 2 -7 -8 -264 -5
-276 2 -6 4 -10 2 -10 -3 0 -8 -72 -7 -95 2 -5 2 -19 0 -30 -4 -11 -4 -30 -4
-41 1 -12 4 -24 5 -27 2 -8 -7 -266 -5 -278 2 -5 4 -9 2 -9 -3 0 -8 -73 -7
-97 2 -6 3 -14 2 -17 -1z"/>
</g>
</svg>
